<?xml version="1.0" encoding="utf-8"?>
<!-- Generator: Adobe Illustrator 22.0.0, SVG Export Plug-In . SVG Version: 6.00 Build 0)  -->
<svg version="1.1" id="layer_1" xmlns="http://www.w3.org/2000/svg" xmlns:xlink="http://www.w3.org/1999/xlink" x="0px" y="0px"
	 viewBox="0 0 841.9 595.3" xml:space="preserve">
<g>
	<g>
		<line style="fill:none;stroke:#000000;stroke-width:10;stroke-miterlimit:10;" class="st0" x1="258.2" y1="242.2" x2="165.3" y2="242.2"/>
		<path style="fill:none;stroke:#000000;stroke-width:10;stroke-miterlimit:10;" d="M169.9,401.5v-80.4c0,0-5.5-46.3,44.2-50.6c39.3,0.9,45.6,27.6,46.3,49.8c0.8,22.3-1.2,81.6-1.2,81.6"/>
		<line style="fill:none;stroke:#000000;stroke-width:10;stroke-miterlimit:10;" x1="215.5" y1="159.7" x2="213.4" y2="434.5"/>
		<path style="fill:none;stroke:#000000;stroke-width:10;stroke-miterlimit:10;" d="M282.1,187.8h52.6c0,0,10.9,0,10.4,19.8c-0.5,19.8,0,52.1,0,52.1"/>
		<path style="fill:none;stroke:#000000;stroke-width:10;stroke-miterlimit:10;" d="M287.8,265.4h75.5c0,0,13,1.6,11.5,25c-1.6,23.4-73.4,144.2-73.4,144.2"/>
		<line style="fill:none;stroke:#000000;stroke-width:10;stroke-miterlimit:10;" x1="312.8" y1="360.1" x2="383.6" y2="435.6"/>
	</g>
	<g>
		<line style="fill:none;stroke:#000000;stroke-width:10;stroke-miterlimit:10;" x1="448.8" y1="299.6" x2="659.2" y2="299.6"/>
		<path style="fill:none;stroke:#000000;stroke-width:10;stroke-miterlimit:10;" d="M524.5,309.6v82.9c0,0,1.5,17.4-17,17.8c-18.6,0.4-55.5,0-55.5,0"/>
		<path style="fill:none;stroke:#000000;stroke-width:10;stroke-miterlimit:10;" d="M579.4,310v103.8c0,0,4.6,11.6,15.1,10.5c10.5-1.2,82.1-17.4,82.1-17.4"/>
		<line style="fill:none;stroke:#000000;stroke-width:10;stroke-miterlimit:10;" x1="629.5" y1="212.6" x2="577.2" y2="274.3"/>
		<path style="fill:none;stroke:#000000;stroke-width:10;stroke-miterlimit:10;" d="M547,170.9v94.2c0,0,2.1,9.9-10,10.7c-12.1,0.8-70.7-48.8-70.7-48.8"/>
	</g>
</g>
</svg>
